Coordinates
version=1
nRows=19
nColumns=36
inDegrees=yes

Units are S.I. units (second, meters, Newtons, ...)
If the header above contains a line with 'inDegrees', this indicates whether rotational values are in degrees (yes) or radians (no).

endheader
time	pelvis_tilt	pelvis_list	pelvis_rotation	pelvis_tx	pelvis_ty	pelvis_tz	hip_flexion_r	hip_adduction_r	hip_rotation_r	knee_angle_r	knee_angle_r_beta	ankle_angle_r	subtalar_angle_r	mtp_angle_r	hip_flexion_l	hip_adduction_l	hip_rotation_l	knee_angle_l	knee_angle_l_beta	ankle_angle_l	subtalar_angle_l	mtp_angle_l	lumbar_extension	lumbar_bending	lumbar_rotation	arm_flex_r	arm_add_r	arm_rot_r	elbow_flex_r	pro_sup_r	arm_flex_l	arm_add_l	arm_rot_l	elbow_flex_l	pro_sup_l
     14.93333330	     -0.57854547	      4.45521850	      0.13180638	      1.05526651	      0.91967700	      0.79213734	     -9.65877708	     -4.07401437	     12.44796869	     11.47018303	      0.20019246	     20.10638740	      8.19512868	     -7.49999987	     30.68818859	     -1.88176553	     -5.30514841	     15.07762866	      0.26315426	      8.93038064	     -5.04249540	     -7.49999987	    -14.90813249	     -3.96739281	      9.64554504	     12.84081184	    -15.18311944	     11.92699426	     36.19246384	     77.69995268	      4.74555180	     -9.52670619	     -0.73957754	     19.29951505	     75.12990150
     14.95000000	     -1.41639108	      5.13704660	      0.47823148	      1.05776308	      0.91077525	      0.79221748	     -9.93733560	     -4.64175814	     12.52470957	     12.08361679	      0.21089890	     20.88909725	      8.01149488	     -7.49999987	     32.00085351	     -0.62651429	     -4.69234464	     13.96767611	      0.24378194	     10.36941981	     -3.77512868	     -7.49999987	    -13.99861686	     -5.03867392	      7.98486502	     14.27156294	    -14.39416055	     13.99274299	     35.19888435	     80.69390101	      3.16018285	     -9.88283697	     -6.24815263	     20.30443675	     80.81904135
     14.96666670	     -2.03765706	      5.66612593	      0.71984254	      1.05718908	      0.90473135	      0.79246313	    -10.21153661	     -5.05142457	     12.39112437	     13.05712955	      0.22788990	     21.97741976	      7.50781865	     -7.49999987	     33.08126317	      0.51192110	     -4.09128967	     13.90167225	      0.24262995	     11.08683543	     -3.07332794	     -7.49999987	    -13.41930611	     -6.13016219	      7.65824762	     14.53357045	    -13.99164911	     14.05054273	     35.60292411	     80.65592839	      2.83111649	    -10.54335912	     -6.33081530	     20.20018463	     80.77267357
     14.98333330	     -2.85721075	      5.91942040	      0.84456555	      1.05649648	      0.90173408	      0.79183975	    -10.10501218	     -5.24189612	     12.25730124	     14.26190082	      0.24891713	     23.07081435	      7.03464324	     -7.49999987	     34.45157471	      1.32631746	     -3.83899232	     15.07881455	      0.26317496	     11.42061695	     -2.01622845	     -7.49999987	    -12.57175540	     -6.91069595	      7.14526424	     15.03941816	    -13.44232824	     14.32208080	     35.59629421	     80.83263820	      2.38490628	    -11.19947585	     -6.49883189	     19.82565817	     80.89485301
     15.00000000	     -3.11688948	      6.21149429	      0.78654274	      1.05895433	      0.90226089	      0.78941825	    -10.71329798	     -5.61867332	     12.21528354	     15.17332485	      0.26482448	     23.69331612	      6.52376407	     -7.49999987	     35.07529331	      2.18749313	     -3.54383411	     16.99840092	      0.29667806	     10.74757150	     -1.78297116	     -7.49999987	    -12.40937615	     -7.79296233	      7.21353289	     15.21895211	    -13.21926983	     14.40013569	     35.55681546	     80.87533293	      2.29442671	    -11.69418558	     -6.60357326	     19.61830799	     80.90932415
     15.01666670	     -4.01421450	      6.27062143	      0.79408682	      1.06486666	      0.90342259	      0.78510658	    -10.66675436	     -5.83431077	     12.54036173	     16.01786950	      0.27956456	     23.65841490	      5.38447328	     -7.49999987	     36.20100610	      2.93510910	     -2.87855703	     19.31783472	      0.33715982	      9.47594782	     -2.00673373	     -7.49999987	    -11.19470019	     -8.23710590	      6.93535132	     15.27168665	    -12.74272042	     14.56418976	     34.76128343	     81.01279530	      1.82625200	    -12.02725571	     -6.88151200	     18.57185990	     80.99814790
     15.03333330	     -4.39620437	      6.40040791	      0.80311886	      1.07169522	      0.90547720	      0.78046550	    -11.25372200	     -6.19822845	     12.63778555	     16.57216669	      0.28923887	     22.71413749	      4.23165356	     -7.49999987	     36.40070758	      3.81970042	     -2.01406784	     21.30811360	      0.37189674	      7.48959183	     -2.68625623	     -7.49999987	    -10.61184770	     -8.74142109	      6.91438835	     15.02729135	    -12.48777555	     14.56491571	     33.68808791	     81.03302630	      1.60628171	    -12.16602409	     -7.20768526	     17.60929505	     80.98252709
     15.05000000	     -4.69002535	      6.48007925	      0.85472909	      1.07869837	      0.90673170	      0.77627710	    -11.76628361	     -6.48788627	     12.53140615	     17.39376587	      0.30357848	     21.22032879	      3.00642425	     -7.49999987	     36.31038247	      4.63354581	     -1.03074961	     23.17648996	      0.40450606	      5.57844356	     -3.56466417	     -7.49999987	    -10.18976095	     -9.14610914	      6.87157052	     14.47355611	    -12.34009660	     14.33496923	     32.82994426	     80.96959928	      1.30779924	    -12.17217458	     -7.42540805	     16.76276881	     80.93780931
     15.06666670	     -4.81259683	      6.67526692	      0.86095895	      1.08614150	      0.90749972	      0.77311584	    -12.18160260	     -6.88694866	     12.04489388	     18.74660411	      0.32718997	     19.43819071	      2.42214476	     -7.49999987	     35.93421579	      5.34356346	     -0.47056011	     25.07454630	      0.43763339	      4.48727120	     -3.84659157	     -7.49999987	    -10.08520063	     -9.71262410	      6.88742299	     13.64831390	    -12.37621553	     14.24888273	     32.45134759	     80.87782401	      0.79646483	    -12.14319307	     -7.47346285	     16.64612085	     80.85046628
     15.08333330	     -4.91036761	      6.73494606	      0.92398770	      1.09294373	      0.90895196	      0.77138616	    -12.48144687	     -6.98843834	     12.06251278	     20.32609529	      0.35475729	     16.48732453	      0.36987882	     -7.49999987	     35.38305861	      6.03598399	      0.95533224	     26.73433250	      0.46660213	      3.19676350	     -5.98499307	     -7.49999987	     -9.77247255	    -10.04217919	      6.96498361	     12.66554764	    -12.29384500	     13.62925912	     31.39625772	     80.76926123	      0.56076956	    -11.96908393	     -7.49184078	     15.86205798	     80.83560833
     15.10000000	     -4.92654313	      6.87316386	      0.75300174	      1.09770857	      0.91136520	      0.77185249	    -12.39488614	     -7.13782946	     11.98973343	     22.54275644	      0.39344532	     13.20976258	     -0.82947782	     -7.49999987	     34.60810125	      6.43445555	      1.66477077	     28.14189075	      0.49116865	      2.90991131	     -7.18922923	     -7.49999987	     -9.61500834	    -10.57686352	      7.21346771	     11.66441355	    -12.02900748	     12.59293318	     30.34785185	     80.15147567	      0.51017950	    -11.89922546	     -7.14829397	     15.03697572	     80.28074626
     15.11666670	     -4.86522234	      6.96505612	      0.65878910	      1.10077680	      0.91426222	      0.77172830	    -11.91797038	     -7.19018919	     11.48656515	     25.30260925	      0.44161384	      9.54644864	     -1.56596400	     -7.49999987	     33.56719221	      6.77263020	      2.33185116	     29.19356004	      0.50952374	      3.15992813	     -8.16662048	     -7.49999987	     -9.59724803	    -11.06429039	      7.56912609	     10.37955249	    -12.01745853	     11.71041195	     29.78290288	     79.70844948	      0.71731763	    -12.06892159	     -5.45806590	     14.55326079	     79.98328197
     15.13333330	     -4.64125788	      6.83495419	      0.53780203	      1.10309808	      0.91781860	      0.76965783	    -10.87603913	     -6.91959166	     11.08865265	     28.92946748	      0.50491446	      5.28831572	     -2.60120138	     -7.49999987	     32.08293515	      6.89175691	      2.99043301	     29.76377049	      0.51947579	      3.72943680	     -9.07565692	     -7.49999987	     -9.90341539	    -11.22183666	      7.20491905	      9.57775499	    -11.93068537	     11.48430434	     29.06035770	     79.78408885	      0.74365133	    -12.18281388	     -4.89413833	     14.47287236	     80.15437966
     15.15000000	     -4.33585996	      6.50114926	      0.56621377	      1.10526409	      0.92163232	      0.76614421	     -9.17916282	     -6.39408686	     10.45502699	     33.42114997	      0.58330911	      0.80606084	     -3.69321291	     -7.49999987	     30.24785473	      6.90784015	      3.77044112	     29.80499125	      0.52019523	      4.48554478	     -9.86984478	     -7.49999987	    -10.41329322	    -11.03119465	      6.52173247	      8.90158174	    -11.86236061	     11.23307813	     28.22733869	     79.80273604	      0.85734015	    -12.33071715	     -4.02237528	     14.57716996	     80.31075892
     15.16666670	     -3.92003854	      6.00432373	      0.68200785	      1.10668336	      0.92636158	      0.76174166	     -6.90801262	     -5.69243559	      9.73562581	     38.59562077	      0.67362066	     -3.31325964	     -4.86950261	     -7.49999987	     28.13546498	      6.77973575	      4.61908234	     29.34498642	      0.51216663	      5.41090402	    -10.49652291	     -7.49999987	    -11.21839963	    -10.51293943	      5.63389951	      8.39472480	    -11.89690452	     11.05421238	     27.66298128	     79.82809344	      1.06182936	    -12.39768561	     -3.28142553	     14.78533681	     80.43407337
     15.18333330	     -3.40341920	      5.44237396	      0.91348786	      1.10766089	      0.93094505	      0.75598699	     -4.32791391	     -5.08034402	      8.64543022	     43.89735385	      0.76615336	     -6.19049407	     -5.34732296	     -7.49999987	     25.84800052	      6.57779994	      5.46603320	     28.54682724	      0.49823613	      6.46642210	    -10.76644837	     -7.49999987	    -12.33519460	     -9.76254972	      4.77980575	      7.88911239	    -12.15820269	     10.94391889	     27.37060143	     79.78612866	      1.42379783	    -12.26012266	     -2.96447989	     15.19435692	     80.43640340
     15.20000000	     -3.16814082	      5.01118099	      0.82734379	      1.10929438	      0.93286327	      0.75122317	     -1.26537887	     -4.59832314	      8.12069051	     48.89689016	      0.85341173	     -8.64217702	     -7.39023123	     -7.49999987	     23.80310005	      6.25722063	      5.79810096	     27.51019752	      0.48014352	      7.24203059	    -11.05579402	     -7.49999987	    -13.15539934	     -9.16034522	      4.05352029	      7.20140629	    -12.31075044	     10.53000645	     27.72853654	     78.43343392	      1.14032325	    -12.21678831	     -2.48677912	     16.79754800	     78.98797299
     15.21666670	     -2.47488688	      4.39349350	      0.93633443	      1.11079851	      0.93584854	      0.74855176	      1.06612038	     -4.15093487	      7.00602634	     52.97151649	      0.92452737	     -9.14918813	     -7.57884049	     -7.49999987	     21.32313969	      5.84142676	      6.36429164	     26.54972297	      0.46338008	      7.81753303	    -11.43606120	     -7.49999987	    -14.45492040	     -8.07854287	      2.90754451	      7.18994188	    -12.44804843	     10.29025746	     26.77551133	     77.91491989	      1.44084720	    -11.94143722	     -1.10535596	     16.97338664	     78.20935846
     15.23333330	     -1.85842765	      3.88020326	      0.82832030	      1.11168200	      0.94289504	      0.74983621	      3.09414054	     -3.66405757	      6.29543750	     55.77826856	      0.97351444	     -9.49870968	     -8.20988045	     -7.49999987	     18.83354042	      5.35817727	      6.52193143	     25.37852060	      0.44293874	      8.21089156	    -11.54129071	     -7.49999987	    -15.61854312	     -7.25343867	      2.20918194	      6.72804443	    -12.63023593	     10.11450794	     26.23817519	     77.57336360	      1.78703594	    -11.74724000	     -0.21452311	     17.84392057	     77.58053200
